<svg width="20" height="20" fill="none" xmlns="http://www.w3.org/2000/svg"><rect width="20" height="20" rx="5" fill="#fff"/><path d="M9.998 4.26c1.871 0 2.093.008 2.829.04.684.03 1.053.146 1.3.241.325.126.56.28.804.523.246.246.396.479.525.804.096.246.21.618.24 1.3.034.738.042.96.042 2.827 0 1.868-.008 2.092-.041 2.828-.03.684-.145 1.053-.241 1.3-.126.325-.279.56-.523.803a2.197 2.197 0 01-.804.525c-.246.096-.618.21-1.3.241-.739.033-.96.041-2.829.041-1.868 0-2.093-.008-2.829-.041-.684-.03-1.053-.145-1.3-.24a2.166 2.166 0 01-.804-.523 2.196 2.196 0 01-.525-.804c-.096-.246-.211-.618-.241-1.3-.033-.738-.041-.96-.041-2.827 0-1.868.008-2.092.04-2.828.031-.684.146-1.053.242-1.3a2.18 2.18 0 01.522-.804c.247-.246.48-.396.805-.525.246-.095.618-.21 1.3-.24.735-.033.957-.041 2.829-.041zm0-1.261c-1.901 0-2.14.008-2.886.041-.745.033-1.256.153-1.7.326-.462.18-.853.418-1.241.81-.392.388-.63.778-.81 1.238-.173.446-.293.954-.326 1.698-.033.75-.04.987-.04 2.888 0 1.9.007 2.139.04 2.885.033.744.153 1.256.326 1.699.18.462.418.853.81 1.241.388.388.78.63 1.24.807.445.172.954.293 1.698.325.747.033.985.041 2.886.041 1.902 0 2.14-.008 2.887-.04.744-.033 1.256-.154 1.699-.326.46-.178.85-.419 1.24-.807.387-.389.629-.78.806-1.239.173-.446.293-.954.326-1.698.033-.746.041-.985.041-2.885 0-1.901-.008-2.139-.041-2.886-.033-.744-.153-1.255-.326-1.698a3.285 3.285 0 00-.801-1.244 3.423 3.423 0 00-1.24-.807c-.446-.173-.954-.293-1.698-.326C12.138 3.007 11.9 3 9.998 3z" fill="#FF8000"/><path d="M9.994 5.999a4.001 4.001 0 000 8 4 4 0 000-8zm0 6.594a2.595 2.595 0 110-5.19 2.595 2.595 0 010 5.19zm5-6.594a1 1 0 11-2 0 1 1 0 012 0z" fill="#FF8000"/></svg>