<svg width="20" height="20" fill="none" xmlns="http://www.w3.org/2000/svg"><rect width="20" height="20" rx="5" fill="#003A51"/><path d="M9.998 4.26c1.872 0 2.093.008 2.829.04.684.03 1.053.145 1.3.241.325.126.56.28.804.523.246.246.396.478.525.804.096.246.21.618.24 1.3.034.738.042.96.042 2.827 0 1.868-.008 2.092-.041 2.828-.03.684-.145 1.053-.24 1.3a2.16 2.16 0 01-.524.803 2.196 2.196 0 01-.804.525c-.246.096-.618.21-1.3.24-.738.034-.96.042-2.829.042-1.868 0-2.092-.008-2.829-.041-.684-.03-1.053-.145-1.3-.24a2.167 2.167 0 01-.804-.523 2.196 2.196 0 01-.525-.804c-.096-.246-.21-.618-.24-1.3-.034-.738-.042-.96-.042-2.827 0-1.868.008-2.092.041-2.828.03-.684.145-1.053.24-1.3.127-.325.28-.56.523-.804.247-.246.48-.396.805-.525.247-.096.618-.21 1.3-.24.736-.033.958-.041 2.829-.041zm0-1.261c-1.901 0-2.139.008-2.886.041-.744.033-1.256.153-1.7.326-.461.18-.853.418-1.24.81-.392.388-.63.778-.81 1.238-.173.446-.294.954-.326 1.698-.033.75-.042.987-.042 2.888 0 1.9.009 2.138.042 2.885.032.744.153 1.256.325 1.699.181.462.419.853.81 1.24.388.389.78.63 1.24.808.445.172.954.292 1.698.325.747.033.985.041 2.887.041 1.901 0 2.14-.008 2.886-.04.744-.034 1.256-.154 1.7-.326.459-.178.85-.419 1.238-.807.389-.389.63-.78.808-1.239.172-.446.292-.954.325-1.698.033-.747.041-.985.041-2.885 0-1.901-.008-2.139-.04-2.886-.034-.744-.154-1.255-.326-1.698a3.285 3.285 0 00-.802-1.244 3.423 3.423 0 00-1.24-.807c-.445-.173-.954-.293-1.698-.326-.75-.035-.988-.044-2.89-.044z" fill="#fff"/><path d="M9.994 5.998a4.001 4.001 0 000 8 4 4 0 000-8zm0 6.595a2.595 2.595 0 110-5.19 2.595 2.595 0 010 5.19zm5-6.595a1 1 0 11-2 0 1 1 0 012 0z" fill="#fff"/></svg>