<svg width="20" height="20" fill="none" xmlns="http://www.w3.org/2000/svg"><rect width="20" height="20" rx="5" fill="#003A51"/><path d="M3.315 10.103l.082-.036c.467-.196.94-.38 1.413-.563.026 0 .068-.027.093-.036l.11-.042.21-.082.42-.163.841-.327 1.684-.652L9.85 7.55l1.683-.653 1.683-.652c.124-.05.26-.122.393-.143.113-.018.222-.053.335-.072.214-.037.45-.052.656.029a.63.63 0 01.19.116c.261.234.225.617.17.946l-1.152 6.867c-.053.314-.124.659-.398.857-.231.168-.56.187-.847.116-.286-.072-.538-.222-.785-.37L8.7 12.744c-.244-.146-.516-.338-.513-.603.002-.16.107-.302.214-.429.892-1.054 2.178-1.778 3.135-2.783.135-.142.241-.398.056-.48-.11-.048-.237.018-.338.08l-3.794 2.39c-.412.26-.845.527-1.342.59-.445.058-.893-.055-1.324-.17a70.36 70.36 0 01-1.08-.296c-.191-.054-.388-.112-.535-.234-.148-.121-.233-.326-.144-.489.056-.101.164-.166.278-.218h.001z" fill="#FEFFFC"/></svg>