<svg width="20" height="20" fill="none" xmlns="http://www.w3.org/2000/svg"><rect width="20" height="20" rx="5" fill="#003A51"/><path d="M15.435 12.24c-.283-.362-.605-.686-.916-1-.11-.111-.225-.226-.335-.341-.317-.33-.328-.453-.078-.828.174-.258.358-.516.535-.766.162-.226.328-.46.488-.696l.033-.048c.305-.45.621-.915.79-1.476.043-.149.089-.366-.016-.549-.105-.182-.308-.237-.452-.263a1.16 1.16 0 00-.207-.015l-2-.001h-.017c-.302 0-.506.151-.623.463-.111.299-.234.616-.373.918-.279.602-.632 1.294-1.143 1.872l-.022.025c-.06.069-.128.147-.178.147a.08.08 0 01-.026-.005c-.106-.044-.177-.316-.173-.443v-.006l-.002-2.461-.001-.025c-.051-.4-.164-.65-.59-.738A.166.166 0 0010.095 6h-2.08c-.34 0-.526.147-.701.366-.048.059-.146.18-.097.329.05.15.21.183.263.193.26.053.406.222.448.518.073.514.081 1.063.028 1.727a1.53 1.53 0 01-.093.45c-.011.028-.051.12-.092.12-.013 0-.05-.005-.118-.055-.162-.118-.28-.286-.417-.493a11.872 11.872 0 01-1.202-2.373c-.126-.329-.362-.512-.664-.518a56.554 56.554 0 00-.92-.008c-.313 0-.604.003-.888.01-.243.004-.411.082-.5.23-.088.149-.082.344.018.58.8 1.895 1.526 3.272 2.352 4.467.58.835 1.161 1.414 1.83 1.82.703.428 1.492.637 2.411.637.104 0 .212-.003.32-.008.535-.028.733-.234.758-.787.012-.283.04-.58.171-.832.083-.16.16-.16.185-.16.049 0 .109.024.174.069.116.08.215.189.297.283l.23.271c.164.196.333.399.51.59.39.421.817.606 1.308.566h1.846a.533.533 0 00.434-.296.824.824 0 00-.006-.742 3.991 3.991 0 00-.465-.714z" fill="#fff"/></svg>