<svg width="20" height="20" fill="none" xmlns="http://www.w3.org/2000/svg"><rect width="20" height="20" rx="5" fill="#003A51"/><path d="M16.88 7.413c-.085-.766-.27-1.612-.951-2.056-.528-.345-1.221-.358-1.869-.357l-4.105.003-3.948.003c-.55 0-1.084-.039-1.595.18a2.054 2.054 0 00-.988.946c-.286.554-.346 1.182-.38 1.795a26.817 26.817 0 00.018 3.352c.057.814.199 1.714.881 2.232.605.46 1.459.483 2.244.483 2.49.002 4.982.005 7.474.006.319 0 .652-.005.978-.038.64-.063 1.25-.232 1.662-.67.415-.441.522-1.055.585-1.636.154-1.41.152-2.834-.005-4.243zm-8.365 4.064V7.523L12.228 9.5l-3.713 1.977z" fill="#fff"/></svg>