<svg width="100" height="100" fill="none" xmlns="http://www.w3.org/2000/svg"><circle cx="50" cy="50" r="50" fill="#FF8000"/><path d="M28 63V39c0-1.1.9-2 2-2h9m29 12v14M41 41V28c0-1.7 1.3-3 3-3h24c1.7 0 3 1.3 3 3v16c0 1.7-1.3 3-3 3h-8l-7.3 7.3c-.6.6-1.7.2-1.7-.7V47h-4m2 14v-1.6c0-2.8-5.8-4.4-8-4.4s-8 1.6-8 4.4V61" stroke="#fff" stroke-width="2" stroke-miterlimit="10"/><path d="M41 43c-2.2 0-4 1.8-4 4v1c0 2.2 1.8 4 4 4s4-1.8 4-4v-1c0-2.2-1.8-4-4-4z" stroke="#fff" stroke-width="2" stroke-miterlimit="10"/><path d="M53 30v5m5-5v5m3.5 2c-1 2.3-3.3 4-6 4s-5-1.6-6-4" stroke="#fff" stroke-width="2" stroke-miterlimit="10" stroke-linejoin="round"/><path d="M71 63H53l-2 2h-5l-2-2H25v1c0 2.2 1.8 4 4 4h38c2.2 0 4-1.8 4-4v-1z" stroke="#fff" stroke-width="2" stroke-miterlimit="10"/></svg>