<svg width="109" height="28" fill="none" xmlns="http://www.w3.org/2000/svg"><path d="M16.267 18.927H9.902a.218.218 0 00-.219.218v6.33c0 .12.098.217.219.217h6.365c.12 0 .219-.097.219-.217v-6.33a.218.218 0 00-.22-.218zm17.239 0H27.14a.218.218 0 00-.22.218v6.33c0 .12.099.217.22.217h6.365c.12 0 .218-.097.218-.217v-6.33a.218.218 0 00-.218-.218zm-8.703-8.653h-6.365a.218.218 0 00-.219.217v6.33c0 .12.098.217.22.217h6.364c.12 0 .219-.097.219-.217v-6.33a.218.218 0 00-.219-.217z" fill="#003A51"/><path d="M33.506 10.274H27.14a.218.218 0 00-.22.217v6.33c0 .12.099.217.22.217h6.365c.12 0 .218-.097.218-.217v-6.33a.218.218 0 00-.218-.217zm-8.703 8.653h-6.365a.218.218 0 00-.219.218v6.33c0 .12.098.217.22.217h6.364c.12 0 .219-.097.219-.217v-6.33a.218.218 0 00-.219-.218z" fill="#FF8000"/><path d="M0 17.413h4.815l20.96-12.894 7.932 3.687 5.69.065-13.67-6.926L0 17.413zM27.14 1.741l2.627 1.306V0h-2.626v1.741zM46.936.057H48.9c.5 0 .762.256.78.766l.245 6.286H47.92l-.215-5.398h-.153l-.7 3.6c-.075.448-.355.675-.845.675h-1.152c-.486 0-.77-.227-.853-.675l-.71-3.6h-.153l-.175 5.398H40.96l.246-6.286c.021-.51.28-.766.779-.766h1.922c.481 0 .761.23.844.683l.513 2.803c.035.218.07.57.113 1.054h.092l.048-.44c.031-.274.057-.479.08-.614l.48-2.803c.084-.457.369-.683.854-.683h.005zm4.141 3.413l-.197-1.36c.932-.17 1.908-.257 2.928-.257.762 0 1.327.157 1.699.47.372.314.556.854.556 1.616v3.169h-1.716l-.197-.714c-.451.574-1.046.857-1.777.857-.508 0-.928-.126-1.266-.378-.337-.253-.503-.61-.503-1.076V5.29c0-.41.149-.731.45-.966.303-.235.719-.353 1.244-.353H53.9v-.04c-.008-.182-.057-.313-.144-.39-.088-.08-.245-.118-.464-.118-.753 0-1.493.017-2.22.052l.005-.005zM52.7 5.323v.165c0 .214.144.318.433.318.228 0 .482-.087.77-.257v-.54h-.814c-.258 0-.39.105-.39.318v-.004zm8.835.14l.197 1.341c-.548.287-1.296.431-2.242.431-1.007 0-1.716-.2-2.123-.605-.407-.4-.613-1.097-.613-2.085s.206-1.685.618-2.085c.411-.4 1.125-.606 2.14-.606.906 0 1.62.127 2.15.38l-.215 1.327h-1.563c-.337 0-.564.065-.683.2-.118.135-.18.392-.18.784 0 .391.062.657.18.792.119.135.346.2.683.2.67 0 1.226-.022 1.655-.07l-.004-.004zm5.787-1.867H65.75v3.517H63.6V3.596h-1.57V2.002h5.292v1.594zm3.97 1.428h-1.287c.04.213.127.357.254.44.127.082.328.121.6.121.67 0 1.366-.04 2.088-.113l.197 1.288c-.622.314-1.462.47-2.517.47s-1.8-.217-2.25-.648c-.451-.431-.679-1.097-.679-1.99 0-1 .22-1.71.657-2.12.438-.413 1.19-.618 2.263-.618.946 0 1.624.148 2.04.449.416.3.626.757.63 1.371.01.483-.14.832-.437 1.036-.298.21-.819.314-1.559.314zm-1.326-1.01h.718c.232 0 .38-.022.442-.066.061-.043.092-.152.092-.322 0-.157-.04-.261-.118-.313-.08-.052-.22-.079-.425-.079-.276-.008-.46.04-.552.135-.092.096-.144.31-.157.645zM75.7 1.998l.175.697c.162-.231.42-.427.77-.584a2.724 2.724 0 011.121-.235c.653 0 1.121.23 1.414.697.294.461.438 1.145.438 2.046 0 1.01-.153 1.702-.464 2.076-.31.375-.8.562-1.48.562-.678 0-1.19-.144-1.57-.431.025.483.038.853.03 1.114v1.014h-2.158V1.998h1.729-.005zm.434 1.606V5.72c.227.087.45.135.678.135.228 0 .381-.074.464-.222.083-.148.123-.479.123-.997s-.04-.849-.118-.997c-.08-.148-.224-.222-.438-.222-.228 0-.464.061-.71.183v.004zm8.821 1.859l.197 1.341c-.548.287-1.296.431-2.242.431-1.007 0-1.716-.2-2.123-.605-.407-.4-.613-1.097-.613-2.085s.206-1.685.617-2.085c.412-.4 1.126-.606 2.141-.606.906 0 1.62.127 2.15.38l-.215 1.327h-1.563c-.337 0-.564.065-.683.2-.118.135-.18.392-.18.784 0 .391.062.657.18.792.119.135.346.2.683.2.67 0 1.226-.022 1.655-.07l-.004-.004zm4.5-1.04v.06c.048.01.118.018.205.031.508.074.832.218.972.422.14.21.377.897.705 2.073.013.047.022.082.03.1h-2.24c-.242-.888-.395-1.428-.465-1.624-.07-.196-.166-.305-.289-.327H87.9c.036.157.053.292.053.401v1.554h-2.15V1.998h2.15v1.115c0 .23-.022.457-.07.674h.184c.258 0 .429-.06.503-.187.075-.126.197-.544.36-1.254.034-.148.06-.265.082-.348h2.18a322.23 322.23 0 01-.525 1.75c-.11.274-.258.448-.45.522-.101.04-.355.092-.762.153zm2.687-.953l-.197-1.359c.933-.17 1.909-.257 2.929-.257.761 0 1.326.157 1.698.47.372.314.556.854.556 1.616v3.169h-1.716l-.197-.714c-.45.574-1.046.857-1.777.857-.508 0-.928-.126-1.265-.378-.337-.253-.504-.61-.504-1.076V5.29c0-.41.15-.731.451-.966.302-.235.718-.353 1.243-.353h1.603v-.04c-.005-.182-.057-.313-.145-.39-.087-.08-.245-.118-.464-.118-.753 0-1.492.017-2.22.052l.005-.005zm1.624 1.854v.165c0 .214.145.318.434.318.227 0 .481-.087.77-.257v-.54h-.81c-.262 0-.39.105-.39.318l-.004-.004zm5.271-.37v-.052c-.749-.157-1.121-.61-1.121-1.359 0-.687.162-1.14.49-1.358.324-.217.994-.326 2.01-.326 1.308 0 2.206.026 2.692.083v5.171h-2.097V5.507h-.451c-.144 0-.241.013-.293.039-.053.026-.083.091-.097.196l-.297 1.371H97.67l.38-1.637c.106-.304.434-.479.986-.522zm1.974-.705V3.33h-.556c-.179 0-.298.022-.355.07-.056.048-.087.14-.087.274 0 .24.031.392.087.466.057.07.176.109.355.109h.556z" fill="#003A51"/><path d="M43.316 12.12h.709c1.112 0 1.878.152 2.302.46.425.305.64.88.64 1.716s-.206 1.419-.618 1.741c-.411.322-1.085.488-2.027.488-1.383 0-2.442-.026-3.178-.083h-.061V9.39a37.784 37.784 0 012.644-.083c.876 0 1.79.026 2.736.083l-.166 1.584h-2.981v1.145zm0 2.872h.709c.293 0 .486-.048.573-.148.088-.1.136-.304.136-.618 0-.313-.044-.518-.136-.618-.092-.1-.28-.148-.573-.148h-.71v1.532zm7.713-.631H49.74c.04.213.127.357.254.44.127.082.329.122.6.122.67 0 1.366-.04 2.088-.114l.197 1.289c-.621.313-1.462.47-2.517.47s-1.799-.218-2.25-.649c-.45-.435-.678-1.097-.678-1.989 0-1.001.218-1.71.656-2.12.438-.413 1.19-.618 2.263-.618.946 0 1.624.148 2.04.448.416.3.626.758.63 1.372.01.483-.14.831-.437 1.036-.298.204-.819.313-1.559.313zm-1.327-1.014h.718c.232 0 .38-.022.442-.066.061-.043.092-.152.092-.322 0-.156-.04-.26-.118-.313-.079-.052-.223-.078-.425-.078-.276-.01-.46.039-.551.135-.092.095-.145.309-.158.644zm3.967-.509l-.136-1.372a7.148 7.148 0 012.035-.274c1.042 0 1.76.087 2.15.261.39.174.586.557.586 1.15 0 .4-.087.692-.262.87-.175.178-.464.283-.867.318v.052c.473.026.814.152 1.024.37.21.218.315.54.315.962 0 .253-.039.466-.113.64a1.064 1.064 0 01-.298.414c-.123.104-.302.178-.53.235a4.188 4.188 0 01-.7.109c-.236.017-.539.026-.898.026-.985 0-1.834-.083-2.538-.244l.135-1.371c.797.082 1.545.121 2.25.121.215 0 .346-.017.407-.052.057-.035.088-.126.088-.274 0-.117-.026-.187-.083-.209-.057-.022-.197-.043-.42-.057l-1.73-.039v-1.197l1.716-.039c.123-.009.21-.013.259-.026a.182.182 0 00.11-.061c.025-.03.034-.083.034-.157 0-.122-.026-.196-.083-.226-.057-.026-.188-.04-.403-.04-.656 0-1.34.04-2.044.123l-.005-.014zm7.271-1.502l.175.696c.166-.23.42-.427.77-.583a2.7 2.7 0 011.12-.235c.653 0 1.121.23 1.415.696.293.462.437 1.145.437 2.046 0 1.01-.153 1.702-.464 2.077-.31.374-.8.561-1.48.561-.678 0-1.19-.143-1.57-.43.026.482.039.857.03 1.114v1.014h-2.158V11.34h1.729l-.004-.004zm.429 1.602v2.115c.227.087.45.135.678.135.228 0 .38-.074.464-.222.083-.148.123-.479.123-.997s-.04-.849-.118-.997c-.08-.148-.224-.222-.438-.222-.228 0-.464.061-.71.183v.005zm4.473-.131l-.197-1.358c.933-.17 1.909-.257 2.929-.257.762 0 1.326.157 1.698.47.372.314.556.853.556 1.615v3.17h-1.716l-.197-.715c-.45.575-1.046.858-1.777.858-.508 0-.928-.126-1.265-.379-.337-.252-.503-.61-.503-1.075v-.51c0-.409.148-.73.45-.966.303-.235.718-.352 1.244-.352h1.602v-.04c-.004-.182-.057-.313-.145-.391-.087-.079-.245-.118-.464-.118-.752 0-1.492.018-2.219.052l.004-.004zm1.624 1.85v.165c0 .21.145.318.434.318.227 0 .481-.087.77-.257v-.54h-.81c-.262 0-.39.105-.39.319l-.004-.005zm9.18-3.321h1.808c.472 0 .718.243.73.727l.114 4.383h-1.952l-.114-3.556h-.114l-.42 2.159c-.07.435-.337.653-.8.653h-.855c-.472 0-.744-.218-.814-.653l-.433-2.16h-.114l-.07 3.557H71.66l.105-4.383c.013-.484.258-.727.74-.727h1.768c.464 0 .731.222.792.666l.298 1.593c.013.07.04.326.07.78h.061l.027-.354c.008-.178.026-.322.048-.422l.276-1.593c.06-.444.328-.666.8-.666v-.004zm9.035 0v5.11h-2.118v-1.994h-1.266v1.994H80.17v-5.11h2.127v1.736h1.266v-1.736h2.118zm3.025 1.602h.359c1.02 0 1.72.121 2.097.37.376.243.564.713.564 1.41s-.175 1.14-.53 1.402c-.354.26-.936.387-1.75.387a49.78 49.78 0 01-2.754-.06h-.061v-5.111h2.075v1.606-.004zm0 2.198h.359c.214 0 .346-.03.407-.091.057-.061.087-.196.087-.41 0-.213-.03-.357-.087-.418-.057-.06-.193-.091-.407-.091h-.36v1.014-.004zm5.634-3.8v5.11h-2.167v-5.11h2.167zm4.596 5.11l-1.007-1.924-1.007 1.924h-2.14l1.493-2.607-1.38-2.503h2.128l.906 1.789.906-1.79h2.128l-1.38 2.504 1.494 2.607h-2.141z" fill="#FF8000"/><path d="M45.045 22.07v.061c.691.1 1.147.318 1.365.645.22.326.53 1.201.937 2.616.048.17.088.3.114.387h-2.324c-.364-1.34-.596-2.133-.7-2.372-.136-.3-.312-.479-.526-.531a1.83 1.83 0 00-.434-.04h-.236c.057.24.083.453.083.645v2.298h-2.232v-7.056h2.232v1.78c0 .323-.035.619-.1.901h.227c.425 0 .714-.134.863-.4.148-.266.354-.927.608-1.985a3.96 3.96 0 00.07-.296h2.263c-.398 1.323-.608 2.024-.639 2.107-.18.492-.402.814-.67.97-.192.122-.494.214-.906.266l.005.005zm5.528-1.545c1.05 0 1.79.205 2.22.61.433.404.648 1.105.648 2.102 0 .997-.215 1.672-.648 2.072-.434.4-1.173.597-2.22.597-1.046 0-1.799-.2-2.232-.597-.434-.4-.648-1.088-.648-2.072s.214-1.693.648-2.102c.433-.405 1.177-.61 2.232-.61zm0 1.454c-.254 0-.42.079-.499.235-.079.157-.118.496-.118 1.023 0 .527.04.832.118.988.079.153.245.231.5.231.253 0 .41-.078.49-.23.078-.153.118-.484.118-.989s-.04-.866-.118-1.023c-.08-.156-.241-.235-.49-.235zm9.123-1.31v5.11h-2.119v-1.993h-1.265v1.993h-2.127v-5.11h2.127v1.737h1.265v-1.737h2.119zm5.52 3.465l.197 1.34c-.547.288-1.295.432-2.241.432-1.007 0-1.716-.2-2.123-.605-.407-.4-.613-1.097-.613-2.086 0-.988.206-1.684.617-2.085.412-.4 1.125-.605 2.14-.605.907 0 1.62.126 2.15.379l-.214 1.328h-1.563c-.337 0-.565.065-.683.2-.118.135-.18.392-.18.783 0 .392.062.662.18.793.118.135.346.2.683.2.67 0 1.221-.022 1.655-.07l-.005-.004zm5.787-1.872h-1.571v3.517h-2.15v-3.517h-1.571V20.67h5.292v1.593zm2.312-1.593l.175.696c.162-.23.42-.426.77-.583a2.7 2.7 0 011.12-.235c.653 0 1.121.23 1.415.696.293.462.437 1.145.437 2.046 0 1.01-.153 1.702-.464 2.077-.31.374-.8.561-1.48.561-.678 0-1.19-.143-1.57-.43.026.483.039.853.03 1.114v1.01H71.59v-6.952h1.729-.004zm.433 1.606v2.116c.228.087.45.135.678.135.228 0 .381-.074.465-.218.083-.148.122-.479.122-.997s-.04-.849-.118-.997c-.079-.148-.223-.217-.438-.217a1.59 1.59 0 00-.709.182v-.004zm9.867-1.606l-1.633 4.967c-.206.683-.473 1.175-.797 1.484-.323.31-.74.531-1.247.675-.622.17-1.331.17-2.119 0l.166-1.358c.692.008 1.2-.07 1.524-.227.162-.082.306-.226.433-.43h-.359c-.35 0-.573-.166-.678-.501l-1.524-4.61h2.294l.609 2.82.135.963h.092c.057-.183.127-.505.215-.962l.608-2.821h2.294-.013zm4.102 2.424v.061c.048.01.118.018.206.03.507.075.831.219.971.423.14.205.377.897.705 2.072.013.048.022.083.03.105h-2.24c-.241-.888-.394-1.428-.465-1.624-.07-.196-.166-.305-.289-.326h-.472c.035.156.052.291.052.4v1.554h-2.15v-5.11h2.15v1.114c0 .23-.022.457-.07.675h.184c.258 0 .43-.061.504-.188.074-.126.197-.544.359-1.253.035-.148.06-.266.083-.349h2.18a320.179 320.179 0 01-.526 1.75c-.11.275-.258.449-.45.523-.101.039-.355.091-.762.152v-.009zm8.628 1.297v2.782h-1.427l-.145-1.388h-4.596v-5.11h2.127v3.721h1.09v-3.722h2.128v3.722h.823v-.004zm6.159 1.39l-1.922.021V23.8c0-.261.026-.58.083-.962h-.052c-.105.335-.245.64-.434.918l-1.317 2.024h-1.913v-5.11h1.913v2.137c0 .213-.027.488-.084.827h.053c.057-.191.188-.457.403-.796l1.357-2.168h1.913v5.11zm6.496 0l-1.922.021V23.8c0-.261.026-.58.083-.962h-.052c-.105.335-.245.64-.434.918l-1.317 2.024h-1.913v-5.11h1.913v2.137c0 .213-.026.488-.083.827h.052c.057-.191.188-.457.403-.796l1.357-2.168H109v5.11zm-2.241-7.384h1.304c.088.457-.039.867-.39 1.228-.35.361-.827.54-1.44.54s-1.09-.179-1.44-.54c-.35-.361-.481-.77-.403-1.227h1.305c-.04.3-.018.504.07.618.087.113.245.17.464.17.219 0 .363-.057.451-.17.087-.114.114-.318.07-.619h.009z" fill="#003A51"/></svg>