<svg width="203" height="53" fill="none" xmlns="http://www.w3.org/2000/svg"><g clip-path="url(#clip0_3196_2593)"><path d="M30.295 35.75H18.441a.407.407 0 00-.407.406v11.788c0 .224.182.405.407.405h11.854a.407.407 0 00.408-.405V36.156a.407.407 0 00-.408-.406zm32.105 0H50.546a.407.407 0 00-.407.406v11.788c0 .224.182.405.407.405H62.4a.407.407 0 00.408-.405V36.156a.407.407 0 00-.408-.406zM46.193 19.633H34.339a.407.407 0 00-.408.405v11.788c0 .224.183.406.408.406h11.854a.406.406 0 00.407-.405V20.038a.407.407 0 00-.407-.405z" fill="#003A51"/><path d="M62.4 19.633H50.546a.407.407 0 00-.407.405v11.788c0 .224.182.406.407.406H62.4a.406.406 0 00.408-.405V20.038a.407.407 0 00-.408-.405zM46.193 35.75H34.339a.407.407 0 00-.408.406v11.788c0 .224.183.405.408.405h11.854a.407.407 0 00.407-.405V36.156a.407.407 0 00-.407-.406z" fill="#FF8000"/><path d="M0 32.93h8.968L48.003 8.914l14.772 6.867 10.599.122L47.913 3.005 0 32.93zM50.546 3.743l4.892 2.432V.5h-4.892v3.243zM87.412.605h3.661c.93 0 1.419.479 1.451 1.427l.457 11.707h-3.734l-.4-10.053h-.285l-1.304 6.705c-.139.835-.66 1.257-1.574 1.257H83.54c-.905 0-1.435-.422-1.59-1.257l-1.32-6.705h-.286l-.326 10.053h-3.734l.457-11.707c.04-.948.522-1.427 1.45-1.427h3.58c.897 0 1.418.43 1.573 1.273l.954 5.221c.065.406.13 1.062.212 1.962h.171l.09-.819c.057-.51.106-.891.147-1.143l.897-5.22c.154-.852.684-1.274 1.59-1.274h.007zm7.713 6.357l-.367-2.53a30.402 30.402 0 015.454-.478c1.418 0 2.47.292 3.163.875.693.584 1.035 1.59 1.035 3.008v5.902h-3.195l-.367-1.33c-.84 1.07-1.949 1.598-3.31 1.598-.946 0-1.729-.235-2.356-.706-.628-.47-.938-1.135-.938-2.002v-.949c0-.762.277-1.362.84-1.8.562-.437 1.337-.656 2.315-.656h2.984V7.82c-.016-.34-.106-.584-.269-.73-.163-.146-.457-.219-.864-.219-1.402 0-2.78.033-4.133.098l.008-.008zm3.024 3.453v.308c0 .397.27.592.807.592.424 0 .897-.162 1.435-.478V9.83h-1.516c-.481 0-.726.195-.726.592v-.008zm16.452.26l.367 2.497c-1.019.535-2.413.802-4.174.802-1.875 0-3.196-.373-3.954-1.127-.758-.745-1.141-2.043-1.141-3.883 0-1.84.383-3.138 1.149-3.883.767-.746 2.095-1.127 3.987-1.127 1.687 0 3.016.235 4.003.705l-.4 2.473h-2.91c-.628 0-1.052.121-1.272.373-.22.251-.334.73-.334 1.459 0 .73.114 1.224.334 1.476.22.25.644.373 1.272.373 1.247 0 2.283-.041 3.082-.13l-.009-.008zm10.778-3.478h-2.927v6.55h-4.003v-6.55h-2.927V4.229h9.857v2.968zm7.394 2.659h-2.396c.073.397.236.665.472.819.237.154.612.227 1.117.227 1.248 0 2.544-.073 3.889-.211l.367 2.4c-1.158.583-2.723.875-4.688.875-1.965 0-3.351-.405-4.19-1.208-.84-.802-1.264-2.043-1.264-3.705 0-1.865.408-3.186 1.223-3.948.815-.77 2.217-1.151 4.215-1.151 1.761 0 3.024.275 3.799.835.774.56 1.166 1.41 1.174 2.554.016.9-.261 1.548-.815 1.93-.555.388-1.525.583-2.903.583zm-2.47-1.881h1.337c.432 0 .709-.04.824-.122.114-.08.171-.283.171-.6 0-.292-.074-.486-.22-.583-.147-.098-.408-.146-.791-.146-.514-.017-.856.073-1.027.251-.172.178-.269.576-.294 1.2zm10.68-3.754l.326 1.297c.302-.43.783-.794 1.435-1.086a5.04 5.04 0 012.087-.438c1.215 0 2.087.43 2.633 1.297.547.86.816 2.133.816 3.81 0 1.882-.286 3.17-.864 3.868-.579.697-1.492 1.046-2.756 1.046-1.264 0-2.218-.268-2.927-.803.049.9.074 1.59.057 2.076v1.889h-4.019V4.22h3.22-.008zm.807 2.992v3.94c.424.162.84.251 1.264.251.424 0 .709-.138.864-.413.155-.276.228-.892.228-1.857s-.073-1.58-.22-1.856c-.147-.276-.416-.414-.815-.414-.424 0-.864.114-1.321.34v.009zm16.428 3.462l.367 2.497c-1.019.535-2.413.802-4.174.802-1.875 0-3.196-.373-3.954-1.127-.758-.745-1.142-2.043-1.142-3.883 0-1.84.384-3.138 1.15-3.883.766-.746 2.095-1.127 3.987-1.127 1.687 0 3.016.235 4.003.705l-.4 2.473h-2.91c-.628 0-1.052.121-1.272.373-.22.251-.335.73-.335 1.459 0 .73.115 1.224.335 1.476.22.25.644.373 1.272.373 1.247 0 2.282-.041 3.081-.13l-.008-.008zm8.381-1.938v.114c.089.016.22.032.383.056.945.138 1.549.406 1.81.787.261.389.701 1.67 1.312 3.859.025.089.041.154.057.186h-4.174c-.448-1.654-.734-2.659-.864-3.024-.13-.365-.31-.567-.538-.608h-.881c.066.292.098.543.098.746v2.894h-4.003V4.221h4.003v2.076c0 .43-.041.851-.13 1.256h.342c.481 0 .799-.113.938-.348.138-.235.367-1.014.668-2.335.066-.276.114-.495.155-.649h4.06a592.349 592.349 0 01-.978 3.26c-.204.51-.481.834-.84.972-.187.073-.66.17-1.418.284zm5.006-1.775l-.367-2.53a30.393 30.393 0 015.454-.478c1.418 0 2.47.292 3.163.875.693.584 1.035 1.59 1.035 3.008v5.902h-3.195l-.367-1.33c-.84 1.07-1.949 1.598-3.31 1.598-.946 0-1.729-.235-2.356-.706-.628-.47-.938-1.135-.938-2.002v-.949c0-.762.277-1.362.84-1.8.562-.437 1.337-.656 2.315-.656h2.984V7.82c-.008-.34-.106-.584-.269-.73-.163-.146-.457-.219-.864-.219-1.402 0-2.78.033-4.134.098l.009-.008zm3.024 3.453v.308c0 .397.269.592.807.592.424 0 .897-.162 1.435-.478V9.83h-1.508c-.489 0-.726.195-.726.592l-.008-.008zm9.816-.689V9.63c-1.394-.292-2.087-1.135-2.087-2.53 0-1.28.302-2.124.913-2.53.603-.404 1.851-.607 3.742-.607 2.438 0 4.109.048 5.014.154v9.631h-3.905v-2.991h-.84c-.269 0-.448.024-.546.073-.098.048-.155.17-.179.364l-.555 2.554h-4.101l.71-3.048c.195-.567.807-.892 1.834-.973zm3.677-1.313v-1.71h-1.036c-.334 0-.554.04-.66.129-.106.089-.163.26-.163.51 0 .446.057.73.163.868.106.13.326.203.66.203h1.036z" fill="#003A51"/><path d="M80.67 23.07h1.321c2.071 0 3.498.284 4.288.86.791.567 1.19 1.638 1.19 3.194 0 1.557-.382 2.643-1.149 3.243-.766.6-2.022.908-3.774.908-2.577 0-4.55-.048-5.92-.154h-.113V17.987a70.36 70.36 0 014.924-.154c1.63 0 3.334.049 5.095.154l-.31 2.951h-5.551v2.133zm0 5.351h1.321c.546 0 .905-.089 1.068-.275.163-.187.253-.568.253-1.151 0-.584-.082-.965-.253-1.152-.171-.186-.522-.275-1.068-.275h-1.32v2.853zm14.365-1.175h-2.397c.074.397.237.665.473.819.236.154.611.227 1.117.227 1.247 0 2.544-.073 3.889-.211l.367 2.4c-1.158.583-2.723.875-4.688.875-1.965 0-3.35-.405-4.19-1.208-.84-.81-1.264-2.043-1.264-3.705 0-1.864.407-3.186 1.223-3.948.815-.77 2.217-1.151 4.215-1.151 1.76 0 3.024.275 3.799.835.774.56 1.166 1.41 1.174 2.554.016.9-.261 1.548-.816 1.93-.554.38-1.524.583-2.902.583zm-2.47-1.89h1.337c.432 0 .71-.04.823-.12.114-.082.172-.285.172-.6 0-.293-.074-.487-.22-.584-.147-.098-.416-.146-.791-.146-.514-.016-.856.073-1.028.251-.17.178-.269.576-.293 1.2zm7.386-.948l-.253-2.553c1.15-.341 2.414-.511 3.791-.511 1.941 0 3.278.162 4.003.486.726.325 1.093 1.038 1.093 2.14 0 .746-.163 1.29-.489 1.622-.327.332-.865.527-1.615.592v.097c.881.049 1.517.284 1.908.69.391.405.587 1.005.587 1.79 0 .471-.073.868-.212 1.193a1.979 1.979 0 01-.554.77c-.229.195-.563.332-.987.438-.424.105-.864.17-1.304.202-.44.033-1.003.049-1.671.049-1.835 0-3.416-.154-4.729-.454l.253-2.554a40.61 40.61 0 004.19.227c.4 0 .644-.032.758-.097.106-.065.163-.235.163-.51 0-.22-.048-.35-.154-.39-.106-.04-.367-.081-.783-.105l-3.22-.073v-2.23l3.195-.073c.229-.016.392-.024.481-.048a.338.338 0 00.204-.114c.049-.057.065-.154.065-.292 0-.227-.048-.365-.154-.421-.106-.049-.351-.073-.75-.073a32.7 32.7 0 00-3.808.227l-.008-.025zm13.542-2.797l.326 1.297c.31-.43.783-.794 1.435-1.086a5.042 5.042 0 012.087-.438c1.215 0 2.087.43 2.633 1.297.546.86.815 2.133.815 3.81 0 1.882-.285 3.17-.864 3.868-.579.697-1.492 1.046-2.755 1.046-1.264 0-2.218-.268-2.927-.803.049.9.073 1.597.057 2.076v1.889h-4.019V21.619h3.22l-.008-.008zm.799 2.984v3.94c.424.162.84.251 1.264.251.423 0 .709-.138.864-.413.155-.276.228-.892.228-1.857 0-.964-.073-1.58-.22-1.856-.147-.276-.416-.414-.815-.414-.424 0-.865.114-1.321.34v.009zm8.332-.243l-.367-2.53a30.392 30.392 0 015.454-.478c1.418 0 2.47.292 3.163.875.693.584 1.035 1.59 1.035 3.008v5.902h-3.195l-.367-1.33c-.84 1.07-1.949 1.598-3.31 1.598-.946 0-1.729-.235-2.356-.705-.628-.47-.938-1.136-.938-2.003v-.949c0-.762.277-1.362.84-1.8.562-.437 1.337-.656 2.315-.656h2.984v-.073c-.008-.34-.106-.584-.269-.73-.163-.146-.457-.219-.864-.219-1.402 0-2.78.033-4.134.098l.009-.008zm3.024 3.445v.308c0 .39.269.592.807.592.424 0 .897-.162 1.435-.478v-1.006h-1.508c-.489 0-.726.195-.726.592l-.008-.008zm17.096-6.186h3.367c.881 0 1.337.454 1.362 1.354l.212 8.164h-3.636l-.212-6.623h-.212l-.783 4.02c-.13.812-.628 1.217-1.492 1.217h-1.59c-.88 0-1.385-.405-1.516-1.216l-.807-4.021h-.212l-.13 6.623h-3.637l.196-8.164c.025-.9.481-1.354 1.378-1.354h3.294c.864 0 1.361.414 1.475 1.24l.555 2.968c.024.13.073.608.13 1.451h.114l.049-.657c.016-.332.049-.6.09-.786l.513-2.967c.115-.827.612-1.24 1.492-1.24v-.009zm16.827 0v9.518h-3.946v-3.713h-2.356v3.713h-3.962v-9.518h3.962v3.235h2.356v-3.235h3.946zm5.634 2.984h.668c1.9 0 3.204.227 3.905.689.701.454 1.052 1.33 1.052 2.627 0 1.297-.326 2.124-.986 2.61-.661.487-1.745.722-3.262.722-2.209 0-3.921-.04-5.128-.114h-.114v-9.518h3.865v2.992-.008zm0 4.094h.668c.4 0 .644-.057.758-.17.106-.114.163-.365.163-.762 0-.398-.057-.665-.163-.779-.106-.113-.358-.17-.758-.17h-.668v1.89-.009zm10.492-7.078v9.518h-4.035v-9.518h4.035zm8.56 9.519l-1.875-3.584-1.875 3.583h-3.986l2.78-4.856-2.569-4.662h3.963l1.687 3.332 1.688-3.332h3.962l-2.568 4.662 2.78 4.856h-3.987z" fill="#FF8000"/><path d="M83.89 41.604v.113c1.289.187 2.137.592 2.544 1.2.408.608.987 2.238 1.745 4.873.09.316.163.56.212.721h-4.33c-.676-2.497-1.108-3.972-1.304-4.418-.252-.56-.578-.892-.978-.99-.187-.048-.456-.072-.807-.072h-.44c.106.446.155.843.155 1.2v4.28h-4.158V35.37h4.158v3.316c0 .6-.066 1.151-.188 1.678h.424c.79 0 1.329-.25 1.606-.745.277-.495.66-1.727 1.133-3.697.066-.244.106-.422.13-.552h4.216c-.742 2.465-1.133 3.77-1.19 3.924-.335.916-.75 1.516-1.248 1.808-.359.227-.921.397-1.688.495l.009.008zm10.297-2.878c1.957 0 3.335.38 4.133 1.135.808.754 1.207 2.059 1.207 3.916 0 1.856-.4 3.113-1.207 3.859-.807.745-2.184 1.11-4.133 1.11-1.948 0-3.35-.373-4.158-1.11-.807-.746-1.206-2.027-1.206-3.86 0-1.832.4-3.153 1.206-3.915.808-.754 2.193-1.135 4.158-1.135zm0 2.708c-.473 0-.782.146-.93.437-.146.292-.22.925-.22 1.906 0 .98.074 1.548.22 1.84.147.284.457.43.93.43.473 0 .767-.146.913-.43.147-.284.22-.9.22-1.84 0-.94-.073-1.614-.22-1.906-.146-.291-.448-.437-.913-.437zm16.99-2.441v9.518h-3.946v-3.713h-2.356v3.713h-3.962v-9.518h3.962v3.235h2.356v-3.235h3.946zm10.281 6.454l.367 2.497c-1.019.535-2.413.802-4.174.802-1.876 0-3.196-.373-3.954-1.127-.759-.745-1.142-2.043-1.142-3.883 0-1.84.383-3.137 1.15-3.883.766-.746 2.095-1.127 3.986-1.127 1.688 0 3.017.235 4.003.705l-.399 2.473h-2.911c-.627 0-1.051.121-1.272.373-.22.251-.334.73-.334 1.46 0 .729.114 1.231.334 1.475.221.25.645.372 1.272.372 1.248 0 2.275-.04 3.082-.13l-.008-.007zm10.777-3.487h-2.926v6.551h-4.003v-6.55h-2.927v-2.968h9.856v2.968zm4.305-2.967l.326 1.297c.302-.43.783-.794 1.435-1.086a5.04 5.04 0 012.087-.438c1.215 0 2.087.43 2.634 1.297.546.86.815 2.133.815 3.81 0 1.882-.285 3.17-.864 3.868-.579.697-1.492 1.046-2.756 1.046-1.264 0-2.217-.268-2.927-.803.049.9.074 1.59.057 2.076v1.88h-4.019V38.994h3.22-.008zm.807 2.992v3.94c.424.162.84.251 1.264.251.424 0 .709-.138.864-.405.155-.276.228-.892.228-1.857 0-.964-.073-1.58-.22-1.856-.146-.276-.415-.405-.815-.405-.424 0-.864.113-1.321.34v-.008zm18.376-2.992l-3.041 9.25c-.383 1.273-.88 2.19-1.484 2.765-.603.576-1.377.99-2.323 1.257-1.158.316-2.478.316-3.946 0l.31-2.53c1.288.017 2.234-.13 2.837-.421.302-.154.571-.422.807-.803h-.668c-.653 0-1.068-.308-1.264-.932l-2.837-8.586h4.272l1.133 5.254c.049.34.13.94.253 1.791h.171c.106-.34.236-.94.399-1.791l1.134-5.254h4.272-.025zm7.639 4.517v.113c.09.016.22.032.383.056.946.138 1.549.406 1.81.787.261.38.701 1.67 1.313 3.859.024.089.041.154.057.194h-4.174c-.449-1.654-.734-2.659-.864-3.024-.131-.364-.31-.567-.538-.608h-.881c.065.292.098.544.098.746v2.895h-4.003V39.01h4.003v2.075c0 .43-.041.851-.131 1.257h.343c.481 0 .799-.114.937-.349.139-.235.367-1.013.669-2.335.065-.276.114-.494.155-.648h4.06c-.603 2.018-.93 3.105-.978 3.259-.204.51-.481.835-.84.973-.188.073-.661.17-1.419.283v-.016zm16.069 2.415v5.18h-2.658l-.269-2.586h-8.56v-9.518h3.962v6.932h2.03v-6.932h3.962v6.932h1.533v-.008zm11.471 2.586l-3.579.04v-3.729c0-.486.049-1.078.155-1.791h-.098a6.506 6.506 0 01-.807 1.71l-2.454 3.77h-3.563v-9.518h3.563v3.981c0 .397-.049.908-.155 1.54h.098c.106-.356.35-.85.75-1.483l2.527-4.038h3.563v9.518zm12.098 0l-3.579.04v-3.729c0-.486.049-1.078.155-1.791h-.098a6.506 6.506 0 01-.807 1.71l-2.454 3.77h-3.563v-9.518h3.563v3.981c0 .397-.049.908-.155 1.54h.098c.106-.356.35-.85.75-1.483l2.527-4.038H203v9.518zm-4.174-13.75h2.429c.163.852-.073 1.614-.725 2.287-.652.672-1.541 1.005-2.682 1.005-1.142 0-2.03-.332-2.683-1.005-.652-.673-.896-1.435-.75-2.287h2.43c-.074.56-.033.94.13 1.152.163.21.457.316.864.316.408 0 .677-.106.84-.316.163-.211.212-.592.131-1.152h.016z" fill="#003A51"/></g><defs><clipPath id="clip0_3196_2593"><path fill="#fff" transform="translate(0 .5)" d="M0 0h203v52H0z"/></clipPath></defs></svg>